#!OML:ASF X:\für Bonn\!DataBase\2005_08_10_Bjorn_Final\c3d\bjorn.ASF
:FULLY-SPECIFIED
:DEGREES
47
root 0.211458 14.9 3.18549 -174.743 -2.37472 177.326
lowerback 18.7644 1.71847 3.3621
upperback 10.4647 0.791019 -1.47723
thorax 0.876629 -0.225609 -3.61509
lowerneck -20.8811 -1.65228 3.48247
upperneck 3.52309 -3.30826 -1.56962
head 4.26069 -1.82797 -1.36529
rclavicle -2.16675e-014 9.93923e-015
rhumerus 87.3561 -3.32505 -67.0854
rradius 11.6867
rwrist 45.0021
rhand -11.9155 8.00749
rfingers 7.12502
rthumb 14.1384 -21.4915
lclavicle -2.16675e-014 9.93923e-015
lhumerus 91.8649 -4.14759 70.8243
lradius 8.41722
lwrist -53.2862
lhand -19.444 -7.86097
lfingers 7.12502
lthumb 6.87654 22.0074
rfemur -56.3343 -9.48076 13.0473
rtibia 99.1771
rfoot -31.1407 16.2752
rtoes -29.4225
lfemur -55.7705 -0.564203 -23.5868
ltibia 100.629
lfoot -26.938 5.93814
ltoes -35.7943
48
root 0.207986 14.663 3.22615 -174.81 -2.44967 177.323
lowerback 19.2398 1.72101 3.36275
upperback 10.6821 0.718402 -1.43435
thorax 0.866902 -0.294772 -3.56388
lowerneck -20.7744 -1.59167 3.62221
upperneck 2.98527 -3.29191 -1.61132
head 4.07373 -1.84158 -1.39207
rclavicle -1.61016e-014 2.78299e-015
rhumerus 87.3664 -3.68106 -65.889
rradius 11.8886
rwrist 44.0494
rhand -12.2243 7.96085
rfingers 7.12502
rthumb 13.8409 -21.5586
lclavicle -1.61016e-014 2.78299e-015
lhumerus 92.1653 -3.75224 70.7517
lradius 8.29256
lwrist -53.5137
lhand -19.6562 -8.07492
lfingers 7.12502
lthumb 6.67171 21.8
rfemur -57.9107 -10.0515 12.867
rtibia 101.529
rfoot -31.0642 17.1872
rtoes -29.0719
lfemur -57.2258 -0.434721 -23.5062
ltibia 102.934
lfoot -27.289 5.24851
ltoes -35.6608
49
root 0.206088 14.4234 3.26613 -174.96 -2.52848 177.284
lowerback 19.8364 1.73957 3.34816
upperback 10.8928 0.659611 -1.40754
thorax 0.791743 -0.361757 -3.52392
lowerneck -20.6461 -1.55656 3.74674
upperneck 2.48187 -3.30439 -1.62163
head 3.89483 -1.86635 -1.40918
rclavicle -1.05356e-014 -4.57205e-015
rhumerus 87.2482 -4.06419 -64.9104
rradius 12.1993
rwrist 43.3121
rhand -12.4741 7.93019
rfingers 7.12502
rthumb 13.6001 -21.6056
lclavicle -1.05356e-014 -4.57205e-015
lhumerus 92.5339 -3.42642 70.682
lradius 8.08012
lwrist -53.7564
lhand -19.8488 -8.14572
lfingers 7.12502
lthumb 6.48576 21.735
rfemur -59.383 -10.6895 12.6376
rtibia 103.857
rfoot -31.0223 18.0711
rtoes -28.8515
lfemur -58.5799 -0.252174 -23.4905
ltibia 105.208
lfoot -27.6228 4.76837
ltoes -35.9565
50
root 0.204065 14.1832 3.30447 -175.139 -2.59532 177.249
lowerback 20.4666 1.75737 3.30182
upperback 11.1131 0.587501 -1.35052
thorax 0.710189 -0.440978 -3.43058
lowerneck -20.5715 -1.49627 3.84709
upperneck 2.01636 -3.27906 -1.65072
head 3.73725 -1.87448 -1.42636
rclavicle -1.15295e-014 2.5842e-014
rhumerus 87.0419 -4.37845 -64.1701
rradius 12.7548
rwrist 42.7422
rhand -12.5643 7.89018
rfingers 7.12502
rthumb 13.5131 -21.6514
lclavicle -1.15295e-014 2.5842e-014
lhumerus 92.9153 -2.9989 70.6459
lradius 7.82457
lwrist -54.0186
lhand -20.0717 -8.20799
lfingers 7.12502
lthumb 6.27061 21.6792
rfemur -60.8205 -11.4044 12.4075
rtibia 106.15
rfoot -31.0493 18.8987
rtoes -28.9996
lfemur -59.8851 -0.0184719 -23.5054
ltibia 107.442
lfoot -27.9525 4.46458
ltoes -36.4604
51
root 0.202283 13.9413 3.3422 -175.382 -2.67204 177.196
lowerback 21.1515 1.78606 3.27245
upperback 11.3573 0.519739 -1.31429
thorax 0.632412 -0.521376 -3.3695
lowerneck -20.5201 -1.45492 3.93575
upperneck 1.56594 -3.28156 -1.62805
head 3.58832 -1.89382 -1.42846
rclavicle -3.57812e-015 5.96354e-015
rhumerus 86.8173 -4.76345 -63.3499
rradius 13.3465
rwrist 41.9706
rhand -12.5317 7.87211
rfingers 7.12502
rthumb 13.5446 -21.6674
lclavicle -3.57812e-015 5.96354e-015
lhumerus 93.2947 -2.60611 70.5926
lradius 7.62053
lwrist -54.2385
lhand -20.2414 -8.2078
lfingers 7.12502
lthumb 6.10677 21.6842
rfemur -62.1628 -12.2168 12.1443
rtibia 108.406
rfoot -31.096 19.7608
rtoes -29.165
lfemur -61.0993 0.239066 -23.539
ltibia 109.637
lfoot -28.3179 4.11148
ltoes -36.8148
52
root 0.200537 13.6987 3.37928 -175.624 -2.7403 177.126
lowerback 21.8514 1.82378 3.23053
upperback 11.5908 0.460548 -1.27712
thorax 0.539315 -0.598877 -3.30083
lowerneck -20.4454 -1.41728 4.0207
upperneck 1.11228 -3.28592 -1.61744
head 3.43508 -1.9152 -1.43354
rclavicle -1.41137e-014 8.34896e-015
rhumerus 86.6103 -5.17037 -62.5892
rradius 13.8785
rwrist 41.337
rhand -12.5206 7.82998
rfingers 7.12502
rthumb 13.5553 -21.7088
lclavicle -1.41137e-014 8.34896e-015
lhumerus 93.6128 -2.246 70.5578
lradius 7.43784
lwrist -54.4279
lhand -20.5027 -8.10624
lfingers 7.12502
lthumb 5.85447 21.7929
rfemur -63.5197 -13.1126 11.8683
rtibia 110.636
rfoot -31.1534 20.5657
rtoes -29.5549
lfemur -62.3067 0.525194 -23.6035
ltibia 111.8
lfoot -28.6953 3.73922
ltoes -37.0142
53
root 0.200191 13.4557 3.41531 -175.908 -2.82192 177.076
lowerback 22.5943 1.86117 3.20633
upperback 11.8373 0.394415 -1.2395
thorax 0.443516 -0.682895 -3.23959
lowerneck -20.4378 -1.3736 4.12481
upperneck 0.725494 -3.28941 -1.59119
head 3.31261 -1.93428 -1.4384
rclavicle 1.82882e-014 -2.78299e-015
rhumerus 86.458 -5.60695 -61.696
rradius 14.264
rwrist 40.5715
rhand -12.4013 7.81533
rfingers 7.12502
rthumb 13.6703 -21.7157
lclavicle 1.82882e-014 -2.78299e-015
lhumerus 93.8893 -1.88967 70.5058
lradius 7.31903
lwrist -54.577
lhand -20.8254 -8.05086
lfingers 7.12502
lthumb 5.54296 21.8566
rfemur -64.8173 -14.0965 11.6219
rtibia 112.825
rfoot -31.2742 21.3193
rtoes -30.0393
lfemur -63.4653 0.854239 -23.6382
ltibia 113.916
lfoot -29.0517 3.26649
ltoes -37.0508
54
root 0.199829 13.2135 3.4505 -176.233 -2.87708 177.027
lowerback 23.3696 1.91075 3.2029
upperback 12.0996 0.336821 -1.20948
thorax 0.355789 -0.765488 -3.19941
lowerneck -20.4127 -1.33747 4.16922
upperneck 0.311889 -3.29408 -1.49639
head 3.18142 -1.95222 -1.41215
rclavicle -5.56597e-015 3.18055e-015
rhumerus 86.2774 -6.03005 -60.9044
rradius 14.6063
rwrist 39.7556
rhand -12.1477 7.87364
rfingers 7.12502
rthumb 13.9146 -21.6408
lclavicle -5.56597e-015 3.18055e-015
lhumerus 94.1528 -1.54775 70.4512
lradius 7.22476
lwrist -54.7851
lhand -21.2029 -7.92871
lfingers 7.12502
lthumb 5.17843 21.988
rfemur -66.0496 -15.1439 11.384
rtibia 114.969
rfoot -31.4726 21.9543
rtoes -30.8282
lfemur -64.5602 1.26791 -23.6794
ltibia 115.993
lfoot -29.4041 2.75169
ltoes -36.8875
55
root 0.199043 12.9731 3.48377 -176.584 -2.93102 176.963
lowerback 24.1718 1.95285 3.20276
upperback 12.3512 0.267028 -1.20513
thorax 0.247399 -0.854694 -3.18485
lowerneck -20.3496 -1.28748 4.25535
upperneck -0.120352 -3.28799 -1.41078
head 3.03871 -1.9661 -1.39382
rclavicle 1.17283e-014 -2.42517e-014
rhumerus 86.0198 -6.41221 -60.1375
rradius 14.9347
rwrist 38.7687
rhand -11.9633 7.94151
rfingers 7.12502
rthumb 14.0923 -21.5606
lclavicle 1.17283e-014 -2.42517e-014
lhumerus 94.3427 -1.24082 70.3607
lradius 7.17788
lwrist -55.0612
lhand -21.6902 -7.79746
lfingers 7.12502
lthumb 4.70789 22.1302
rfemur -67.2391 -16.3117 11.1315
rtibia 117.072
rfoot -31.7267 22.5742
rtoes -31.6875
lfemur -65.5837 1.74057 -23.7527
ltibia 118.008
lfoot -29.7822 2.28597
ltoes -36.7931
56
root 0.198438 12.7343 3.51663 -177.013 -3.00839 176.899
lowerback 25.0515 1.99956 3.1988
upperback 12.6085 0.193099 -1.17177
thorax 0.113151 -0.952178 -3.13458
lowerneck -20.0339 -1.26556 4.23764
upperneck -0.978395 -3.28278 -1.12827
head 3.12467 -1.96754 -1.44992
rclavicle -2.00773e-014 1.98785e-014
rhumerus 85.7679 -6.76069 -59.4976
rradius 15.2114
rwrist 37.8704
rhand -11.9923 7.96133
rfingers 7.12502
rthumb 14.0644 -21.5428
lclavicle -2.00773e-014 1.98785e-014
lhumerus 94.5012 -0.957035 70.3106
lradius 7.13512
lwrist -55.3106
lhand -22.0424 -7.69957
lfingers 7.12502
lthumb 4.36784 22.2354
rfemur -68.2902 -17.6371 10.8588
rtibia 119.125
rfoot -32.026 23.2222
rtoes -32.5219
lfemur -66.5194 2.26085 -23.8213
ltibia 119.977
lfoot -30.1578 1.71364
ltoes -36.5786
57
root 0.196645 12.4986 3.54831 -177.493 -3.07852 176.874
lowerback 25.9295 2.05057 3.28881
upperback 12.9039 0.126923 -1.16501
thorax 0.0333632 -1.04521 -3.16814
lowerneck -20.0243 -1.23365 4.29615
upperneck -1.34695 -3.29758 -0.97435
head 2.99218 -1.98987 -1.40257
rclavicle 4.77083e-015 1.78906e-014
rhumerus 85.5717 -7.17003 -59.13
rradius 15.408
rwrist 37.2351
rhand -12.1729 8.00858
rfingers 7.12502
rthumb 13.8904 -21.5075
lclavicle 4.77083e-015 1.78906e-014
lhumerus 94.7188 -0.725745 70.2179
lradius 7.08617
lwrist -55.4554
lhand -22.0927 -7.62325
lfingers 7.12502
lthumb 4.31929 22.3127
rfemur -69.2563 -19.0824 10.6145
rtibia 121.114
rfoot -32.3315 23.8775
rtoes -33.3066
lfemur -67.3582 2.89282 -23.8573
ltibia 121.882
lfoot -30.5231 1.16641
ltoes -36.4236
58
root 0.194881 12.2654 3.57977 -178.022 -3.15928 176.849
lowerback 26.8703 2.0939 3.36634
upperback 13.1929 0.0426069 -1.13649
thorax -0.0781637 -1.15267 -3.16478
lowerneck -20.0564 -1.19715 4.2465
upperneck -1.66607 -3.28458 -0.757554
head 2.88831 -1.99455 -1.31441
rclavicle -1.88845e-014 1.90833e-014
rhumerus 85.4257 -7.52284 -58.8807
rradius 15.5866
rwrist 36.9012
rhand -12.2372 7.99364
rfingers 7.12502
rthumb 13.8284 -21.5267
lclavicle -1.88845e-014 1.90833e-014
lhumerus 94.8969 -0.48009 70.1474
lradius 7.02607
lwrist -55.6684
lhand -22.0942 -7.42514
lfingers 7.12502
lthumb 4.31785 22.5108
rfemur -70.1482 -20.7233 10.3523
rtibia 123.062
rfoot -32.6806 24.5942
rtoes -33.9712
lfemur -68.1 3.53624 -23.8817
ltibia 123.724
lfoot -30.9222 0.585018
ltoes -36.2982
